<?xml version="1.0" encoding="utf-8"?>
<!-- Generator: Adobe Illustrator 24.3.0, SVG Export Plug-In . SVG Version: 6.00 Build 0)  -->
<svg version="1.1" xmlns="http://www.w3.org/2000/svg" xmlns:xlink="http://www.w3.org/1999/xlink" x="0px" y="0px"
	 viewBox="0 0 90 112.5" style="enable-background:new 0 0 90 112.5;" xml:space="preserve">
<g id="Layer_1">
	<path d="M61.8,35.8c-3.1-1.7-5.9-3.2-8.5-4.5l7-16.4l2,0.9c0.1,0.1,0.3,0.1,0.4,0.1c0.2,0,0.4-0.1,0.6-0.2c0.3-0.2,0.4-0.5,0.4-0.9
		l-0.4-7.1c0-0.4-0.3-0.7-0.6-0.9c-0.3-0.1-0.7-0.1-1,0.2l-5.4,4.5c-0.3,0.2-0.4,0.6-0.3,0.9c0,0.3,0.3,0.6,0.6,0.8l2,0.9l-7,16.3
		c-0.6-0.3-1.1-0.5-1.6-0.8L46.4,28l0.9-2c0.1-0.3,0.1-0.7-0.1-1c-0.2-0.3-0.5-0.5-0.9-0.4c-2.4,0.1-4.8,0.2-7.1,0.3
		c-0.4,0-0.7,0.2-0.9,0.6c-0.2,0.3-0.1,0.7,0.1,1c1.4,1.8,2.9,3.6,4.4,5.5c0.2,0.2,0.5,0.4,0.8,0.4c0,0,0.1,0,0.1,0
		c0.3,0,0.6-0.3,0.8-0.6l0.9-2l3.4,1.6c0.5,0.3,1.1,0.5,1.7,0.8l-3.5,8.2c-2.6-0.2-5.2-0.4-8-0.5c-2.2-0.1-3.9-0.2-5.6-0.2
		c-2,0-3.9,0-5.8,0.2c-0.5,0.1-1,0.1-1.6,0.3c-0.3,0.1-0.6,0.2-0.9,0.4c-0.6,0.4-0.9,0.9-0.9,1.5c0.1,0.9,0.7,1.3,1.1,1.6l0.2,0.1
		c0.4,0.3,0.8,0.6,1.2,0.9c1.5,1.1,3,2.1,4.5,3.1l3.9,2.6c1.9,1.3,3.8,2.6,5.8,3.9l-4.2,10c-2.5-0.8-5.1-1.5-7.7-2
		c-1.2-0.2-2.3-0.3-3.3-0.2c-1.5,0.1-2.6,0.5-3.5,1.3c-0.9,0.8-1.4,2-1.5,3.4c-0.1,1,0,2.1,0.2,3.3c0.3,2.2,0.7,4.2,1.3,6.1
		c0.5,1.7,1.3,3.9,2.7,5.7c1,1.2,2,1.9,3.1,2c0.1,0,0.2,0,0.3,0c0.6,0,1.2-0.2,1.7-0.5c0.5-0.3,0.9-0.7,1.3-1.2
		c1-1.3,1.6-2.8,2.1-4.3c0.1-0.4,0.3-0.8,0.5-1.2c1.4-3.5,2.8-6.9,4-9.9c0.2,0.1,0.4,0.1,0.6,0.2c0.7,0.2,1.5,0.5,2.2,0.7
		c4,1.3,8,2.6,12.2,3.7c1.9,0.5,4.1,1,6.3,1.4l0.4,0c1,0.1,2.1,0.3,3.3-0.1c0.6-0.2,1-0.7,1.1-1.3c0.1-0.5-0.1-1-0.2-1.3
		c-0.3-0.7-0.7-1.1-1-1.6c-1.5-1.7-3.2-3.1-4.8-4.4c-1.4-1.2-3-2.4-5-3.8c-3.1-2.3-6.3-4.5-9.5-6.6l4.8-11.3c3,0.2,5.9,0.5,8.8,0.7
		l6.8,0.6c0.8,0,1.6,0.1,2.4,0c0.4-0.1,0.9-0.1,1.4-0.4c0.4-0.2,0.6-0.5,0.8-0.9c0.1-0.5,0.1-1-0.1-1.4c-0.4-0.8-1.1-1.3-1.7-1.8
		c-0.5-0.4-1.1-0.9-1.8-1.3C64.2,37.3,63.1,36.6,61.8,35.8z M36.3,66.4c-1.2,2.9-2.6,6.3-3.9,9.8c-0.2,0.4-0.3,0.8-0.5,1.3
		c-0.5,1.4-1,2.6-1.8,3.7c-0.3,0.3-0.5,0.6-0.8,0.8c-0.2,0.1-0.5,0.2-0.8,0.2c-0.5-0.1-1.1-0.4-1.7-1.2c-1.2-1.6-1.9-3.5-2.3-5.1
		c-0.5-1.8-0.9-3.7-1.2-5.8c-0.2-1.1-0.2-2-0.2-2.8c0-0.7,0.2-1.6,0.8-2.1c0.5-0.5,1.2-0.7,2.2-0.8c0.8,0,1.8,0,2.9,0.2
		C31.5,64.9,33.9,65.6,36.3,66.4z M43,55.7c3,2.1,6.1,4.2,9.1,6.4c1.9,1.4,3.5,2.6,4.9,3.8c1.5,1.3,3.2,2.6,4.5,4.1
		c0.3,0.4,0.6,0.7,0.7,1.1c0,0,0,0,0,0c-0.6,0.2-1.4,0.1-2.1,0l-0.3,0c-2.1-0.4-4.2-0.9-6.1-1.4c-4.1-1.1-8-2.3-12-3.7
		c-0.7-0.2-1.5-0.5-2.2-0.7c-0.1,0-0.3-0.1-0.4-0.1L43,55.7z M46.4,42.4l-4.3,10.3c-1.8-1.2-3.7-2.5-5.5-3.7l-3.9-2.6
		c-1.5-1-3-2-4.4-3.1c-0.4-0.3-0.8-0.6-1.1-0.8l-0.2-0.1c0,0,0,0-0.1-0.1c0,0,0,0,0,0c0.4-0.1,0.9-0.2,1.3-0.2
		c1.8-0.2,3.5-0.2,5.5-0.2c1.6,0,3.3,0.1,5.5,0.2C41.6,42.1,44,42.3,46.4,42.4z M44.9,26.7l-0.7,1.4c0,0,0,0,0,0s0,0,0,0l-0.7,1.4
		c-0.7-0.9-1.4-1.8-2.2-2.7C42.5,26.8,43.7,26.7,44.9,26.7z M58.8,12.1l2.7-2.2l0.2,3.5L58.8,12.1z M60.8,37.6
		c1.3,0.7,2.3,1.4,3.3,2.1c0.6,0.4,1.1,0.8,1.6,1.2c0.4,0.3,0.8,0.6,1,1c-0.1,0-0.2,0-0.4,0.1c-0.6,0.1-1.3,0.1-2.1,0l-6.8-0.6
		c-2.7-0.2-5.4-0.4-8.1-0.7l3.2-7.5C55,34.4,57.8,35.9,60.8,37.6z"/>
</g>
<g id="Layer_2">
</g>
</svg>
