<svg xmlns="http://www.w3.org/2000/svg" xmlns:xlink="http://www.w3.org/1999/xlink" version="1.1" x="0px" y="0px" viewBox="0 0 90 112.5" style="enable-background:new 0 0 90 90;" xml:space="preserve"><path d="M24.7675781,37.953125c-0.6660156,0.4467773-1.2382813,0.8666992-1.7695313,1.2993164  c-0.5830078,0.4897461-1.2441406,1.0449219-1.6533203,1.8334961c-0.2382813,0.4233398-0.2919922,0.9287109-0.1455078,1.3867188  c0.1298828,0.4072266,0.4052734,0.7338867,0.7773438,0.925293c0.4746094,0.2749023,0.9755859,0.3662109,1.4072266,0.4194336  c0.8173828,0.0991211,1.6445313,0.0756836,2.4453125,0.0332031l6.84375-0.5571289  c2.8789063-0.237793,5.8056641-0.4790039,8.8085938-0.7016602l4.7646484,11.2592773  c-3.1503906,2.1469727-6.3203125,4.3530273-9.4589844,6.6450195c-1.9765625,1.449707-3.5683594,2.6669922-5.0136719,3.8354492  c-1.5439453,1.2675781-3.2949219,2.7045898-4.75,4.4033203c-0.3720703,0.4487305-0.7539063,0.9448242-1.0449219,1.5966797  c-0.1171875,0.3085938-0.2939453,0.7749023-0.1826172,1.2900391c0.109375,0.6069336,0.5605469,1.1313477,1.1425781,1.3320313  c1.1279297,0.4018555,2.2675781,0.2485352,3.2724609,0.1147461l0.3574219-0.0478516  c2.2070313-0.3759766,4.3876953-0.9233398,6.2607422-1.4067383c4.1337891-1.0756836,8.1142578-2.3608398,12.1591797-3.690918  c0.7373047-0.2358398,1.4726563-0.4765625,2.2080078-0.7177734c0.1914063-0.0625,0.3837891-0.1254883,0.5761719-0.1879883  c1.2226563,2.953125,2.6201172,6.3520508,3.9892578,9.8662109c0.1582031,0.3974609,0.3066406,0.8027344,0.4550781,1.2099609  c0.5273438,1.4443359,1.0732422,2.9375,2.1054688,4.2724609c0.4179688,0.5175781,0.8398438,0.9125977,1.3115234,1.2207031  c0.5527344,0.3417969,1.1494141,0.519043,1.7431641,0.519043c0.0908203,0,0.1816406-0.0043945,0.2724609-0.0126953  c1.1025391-0.1054688,2.109375-0.7480469,3.0976563-1.9863281c1.3730469-1.8271484,2.1396484-4.015625,2.65625-5.7260742  c0.5449219-1.8623047,0.9726563-3.909668,1.2685547-6.0693359c0.1865234-1.2143555,0.2441406-2.2851563,0.1777344-3.2729492  c-0.1015625-1.4672852-0.6162109-2.659668-1.4794922-3.4404297c-0.8339844-0.7734375-2.0019531-1.2089844-3.4726563-1.2958984  c-0.9990234-0.0556641-2.0898438,0.019043-3.3300781,0.2353516c-2.5996094,0.4667969-5.1591797,1.2133789-7.6601563,2.0102539  l-4.1835938-9.9619141c1.9453125-1.3183594,3.8798828-2.6157227,5.7929688-3.8979492l3.921875-2.6347656  c1.4882813-1.0053711,3.0273438-2.0454102,4.5-3.1044922c0.40625-0.293457,0.8085938-0.5917969,1.2324219-0.9301758  l0.1533203-0.128418c0.3789063-0.3129883,0.9511719-0.7861328,1.0673828-1.6376953  c0.0517578-0.5893555-0.2597656-1.1376953-0.8632813-1.5083008c-0.2568359-0.1557617-0.5527344-0.2802734-0.8964844-0.3793945  c-0.5556641-0.1645508-1.0986328-0.2480469-1.5673828-0.3095703c-1.9013672-0.230957-3.7441406-0.2382813-5.7753906-0.2270508  c-1.6328125,0.0180664-3.3964844,0.0742188-5.5517578,0.1772461c-2.7314453,0.1362305-5.3837891,0.3041992-7.9765625,0.4887695  l-3.4970703-8.1894531c0.5927734-0.2895508,1.1650391-0.5673828,1.7138672-0.8339844l3.4255981-1.6206055l0.9249878,1.9868164  c0.1464844,0.3154297,0.4472656,0.5322266,0.7919922,0.5717773c0.0380859,0.0043945,0.0761719,0.0063477,0.1142578,0.0063477  c0.3056641,0,0.5966797-0.1401367,0.7880859-0.3837891c1.4707031-1.8803711,2.9482422-3.7333984,4.3925781-5.5073242  c0.2382813-0.2924805,0.2919922-0.6943359,0.1376953-1.0385742c-0.1533203-0.3447266-0.4873047-0.5732422-0.8642578-0.5917969  c-2.3066406-0.1118164-4.7041016-0.2050781-7.1240234-0.2758789c-0.3544922-0.0175781-0.6738281,0.159668-0.8642578,0.449707  c-0.1914063,0.2895508-0.2177734,0.6572266-0.0712891,0.9716797l0.9302368,1.9980469l-3.4458618,1.6303711  c-0.5253906,0.2548828-1.0712891,0.5195313-1.6357422,0.7954102l-6.9695435-16.3213501l2.0203247-0.868103  c0.3193359-0.137207,0.5449219-0.4301758,0.5947266-0.7739258c0.0507813-0.34375-0.0810547-0.6889648-0.3476563-0.9121094  l-5.4365234-4.5478516c-0.2900391-0.2421875-0.6894531-0.2998047-1.0371094-0.1513672  c-0.3457031,0.1489258-0.5791016,0.4799805-0.6025391,0.8564453l-0.4384766,7.0722656  c-0.0214844,0.3466797,0.1386719,0.6796875,0.4228516,0.8798828c0.1708984,0.1201172,0.3720703,0.1821289,0.5751953,0.1821289  c0.1337891,0,0.2685547-0.0268555,0.3945313-0.0810547l2.0167236-0.8665771l7.0096436,16.4158936  c-2.5429688,1.2617188-5.4003906,2.7329102-8.4648438,4.4804688C26.8876953,36.5908203,25.7929688,37.2661133,24.7675781,37.953125z   M60.9160156,64.5063477c1.0830078-0.1889648,2.0205078-0.2573242,2.8652344-0.2080078  c0.9941406,0.0585938,1.7441406,0.3164063,2.2382813,0.7744141c0.6083984,0.5498047,0.7890625,1.4467773,0.8339844,2.1015625  c0.0576172,0.8388672,0.0048828,1.7661133-0.1611328,2.8496094c-0.2841797,2.0771484-0.6904297,4.0268555-1.2060547,5.7861328  c-0.4667969,1.5444336-1.1542969,3.519043-2.3212891,5.0717773c-0.6132813,0.7700195-1.171875,1.1689453-1.7021484,1.2197266  c-0.2382813,0.0209961-0.5166016-0.0551758-0.7558594-0.2021484c-0.2724609-0.1787109-0.5439453-0.4370117-0.8154297-0.7734375  c-0.8300781-1.0727539-1.2988281-2.3583984-1.7958984-3.71875c-0.1552734-0.4248047-0.3095703-0.8481445-0.4726563-1.2568359  c-1.3505859-3.465332-2.7285156-6.8198242-3.9414063-9.7504883C56.0644531,65.6435547,58.4921875,64.9418945,60.9160156,64.5063477z   M50.9970703,65.1660156c-0.140625,0.0463867-0.2822266,0.0922852-0.4228516,0.1386719  c-0.7314453,0.2392578-1.4628906,0.4785156-2.203125,0.715332c-4.0214844,1.3222656-7.96875,2.597168-12.0439453,3.6577148  c-1.8320313,0.4731445-3.9638672,1.0078125-6.0537109,1.3647461l-0.328125,0.043457  c-0.7675781,0.1025391-1.4970703,0.2011719-2.1318359,0.0444336c0.0068359-0.0170898,0.0117188-0.03125,0.0146484-0.0400391  c0.1572266-0.3510742,0.4072266-0.6845703,0.7246094-1.0664063c1.3300781-1.5532227,2.9365234-2.871582,4.484375-4.1416016  c1.4140625-1.1435547,2.9824219-2.3427734,4.9316406-3.7724609c3.0039063-2.1938477,6.0429688-4.3125,9.0673828-6.3769531  L50.9970703,65.1660156z M50.8349609,42.0024414c2.1279297-0.1015625,3.8681641-0.1572266,5.4707031-0.1748047  c1.9628906-0.0102539,3.7324219-0.0039063,5.5087891,0.2114258c0.3808594,0.0498047,0.8271484,0.1181641,1.2568359,0.2451172  c0.0146484,0.0039063,0.0283203,0.0078125,0.0410156,0.012207c-0.0224609,0.0185547-0.0429688,0.0356445-0.0625,0.0517578  l-0.1582031,0.1333008c-0.3652344,0.2910156-0.7441406,0.5708008-1.1230469,0.8447266  c-1.4462891,1.0400391-2.9736328,2.0717773-4.4492188,3.0693359l-3.9169922,2.6308594  c-1.8056641,1.2109375-3.6318359,2.4350586-5.46875,3.6782227l-4.3417969-10.2641602  C45.9521484,42.2753906,48.3623047,42.1259766,50.8349609,42.0024414z M48.6181641,26.8007813  c-0.7177734,0.8916016-1.4414063,1.7993164-2.1640625,2.7158203l-0.6644897-1.4265747  c-0.0003052-0.0006714-0.0002441-0.0014648-0.0005493-0.0021362s-0.0009766-0.0010376-0.0012817-0.001709l-0.6608276-1.4187012  C46.3027344,26.706543,47.46875,26.7514648,48.6181641,26.8007813z M28.3574219,13.3178711l0.2158203-3.4755859l2.6708984,2.2348633  L28.3574219,13.3178711z M37.4667969,33.1889648l3.1845703,7.4594727c-2.7705078,0.2084961-5.4775391,0.4316406-8.1435547,0.6518555  l-6.8125,0.5551758c-0.7871094,0.0415039-1.4414063,0.0527344-2.0683594-0.0234375  c-0.1123047-0.0136719-0.2382813-0.0317383-0.3574219-0.0600586c0.2558594-0.3505859,0.6259766-0.6611328,1.0107422-0.9838867  c0.4638672-0.3779297,0.9882813-0.762207,1.6015625-1.1743164c0.9853516-0.6601563,2.0439453-1.3129883,3.3271484-2.0512695  C32.1875,35.8642578,34.9775391,34.4257813,37.4667969,33.1889648z"/><text x="0" y="105" fill="#000000" font-size="5px" font-weight="bold" font-family="'Helvetica Neue', Helvetica, Arial-Unicode, Arial, Sans-serif">Created by iconcheese</text><text x="0" y="110" fill="#000000" font-size="5px" font-weight="bold" font-family="'Helvetica Neue', Helvetica, Arial-Unicode, Arial, Sans-serif">from the Noun Project</text></svg>